<svg width="86" height="74" viewBox="0 0 86 74" fill="none" xmlns="http://www.w3.org/2000/svg">
<path d="M2.97208 42.7269L8.83252 44.1811L13.244 37.2502L4.85963 35.1765C3.85898 34.9261 2.79988 35.0836 1.91532 35.6145C1.03076 36.1454 0.393202 37.0061 0.142897 38.0074C-0.107408 39.0086 0.0500451 40.0684 0.580619 40.9535C1.11119 41.8385 1.97143 42.4765 2.97208 42.7269ZM79.4674 43.8498L60.278 61.1276L37.7177 43.6562C37.2872 43.325 36.7921 43.0876 36.2644 42.9593L33.2632 42.2107L28.8475 49.1416L33.5771 50.3161L58.0723 69.2803C58.7995 69.8404 59.6996 70.1285 60.6167 70.0947C61.5338 70.061 62.4102 69.7074 63.0943 69.0954L84.713 49.6191C85.0937 49.2778 85.403 48.8643 85.623 48.4027C85.8431 47.941 85.9696 47.4404 85.9951 46.9295C86.0207 46.4187 85.9449 45.9079 85.7721 45.4265C85.5993 44.9452 85.3328 44.5029 84.9882 44.1252C84.2908 43.3591 83.3189 42.9002 82.2846 42.8486C81.2502 42.7971 80.2375 43.157 79.4674 43.8498ZM37.3436 24.8683L58.3561 38.3301C59.2095 38.876 60.2409 39.0708 61.2345 38.8735C62.2282 38.6763 63.1071 38.1023 63.6877 37.2717L85.3021 6.11489C85.5947 5.69443 85.8012 5.22015 85.9097 4.71941C86.0182 4.21867 86.0266 3.7014 85.9342 3.19743C85.8419 2.69345 85.6507 2.21277 85.3717 1.78311C85.0928 1.35345 84.7315 0.983316 84.3089 0.694073C83.4562 0.104552 82.4045 -0.122351 81.3848 0.0631663C80.365 0.248683 79.4605 0.831463 78.8698 1.68359L59.4009 29.7385L38.2637 16.1993C37.3865 15.6382 36.3228 15.4479 35.3056 15.6702C34.2921 15.8967 33.4095 16.5154 32.8505 17.3911L0.61586 68.0155C0.237868 68.6043 0.0258529 69.2844 0.00221796 69.9838C-0.0214169 70.6832 0.144206 71.3761 0.481586 71.9891C0.818966 72.6021 1.31557 73.1126 1.91894 73.4665C2.5223 73.8204 3.21001 74.0047 3.9094 73.9999C4.5674 74.0016 5.21514 73.8368 5.79245 73.5209C6.36976 73.205 6.85791 72.7482 7.21155 72.193L37.3436 24.8683Z" fill="#3BC35A"/>
</svg>
