<svg width="174" height="28" viewBox="0 0 174 28" fill="none" xmlns="http://www.w3.org/2000/svg">
<path d="M14.72 0L10.17 9.22L0 10.69L7.36 17.87L5.62 28L14.72 23.22L23.82 28L22.08 17.87L29.44 10.7L19.27 9.22L14.72 0Z" fill="#3BC35A"/>
<path d="M50.72 0L46.17 9.22L36 10.69L43.36 17.87L41.62 28L50.72 23.22L59.82 28L58.08 17.87L65.44 10.7L55.27 9.22L50.72 0Z" fill="#3BC35A"/>
<path d="M86.72 0L82.17 9.22L72 10.69L79.36 17.87L77.62 28L86.72 23.22L95.82 28L94.08 17.87L101.44 10.7L91.27 9.22L86.72 0Z" fill="#3BC35A"/>
<path d="M122.72 0L118.17 9.22L108 10.69L115.36 17.87L113.62 28L122.72 23.22L131.82 28L130.08 17.87L137.44 10.7L127.27 9.22L122.72 0Z" fill="#3BC35A"/>
<path d="M158.72 0L154.17 9.22L144 10.69L151.36 17.87L149.62 28L158.72 23.22L167.82 28L166.08 17.87L173.44 10.7L163.27 9.22L158.72 0Z" fill="#3BC35A"/>
</svg>
